<?xml version="1.0" encoding="UTF-8" standalone="no"?>
<!-- Created with Inkscape (http://www.inkscape.org/) -->

<svg
   xmlns:dc="http://purl.org/dc/elements/1.1/"
   xmlns:cc="http://creativecommons.org/ns#"
   xmlns:rdf="http://www.w3.org/1999/02/22-rdf-syntax-ns#"
   xmlns:svg="http://www.w3.org/2000/svg"
   xmlns="http://www.w3.org/2000/svg"
   xmlns:sodipodi="http://sodipodi.sourceforge.net/DTD/sodipodi-0.dtd"
   xmlns:inkscape="http://www.inkscape.org/namespaces/inkscape"
   width="45.875713mm"
   height="46.286221mm"
   viewBox="0 0 45.875713 46.286221"
   version="1.1"
   id="svg4199"
   inkscape:version="0.92.3 (2405546, 2018-03-11)"
   sodipodi:docname="art-icon.svg">
  <defs
     id="defs4193" />
  <sodipodi:namedview
     id="base"
     pagecolor="#ffffff"
     bordercolor="#666666"
     borderopacity="1.0"
     inkscape:pageopacity="0.0"
     inkscape:pageshadow="2"
     inkscape:zoom="0.7"
     inkscape:cx="-181.18579"
     inkscape:cy="108.51008"
     inkscape:document-units="mm"
     inkscape:current-layer="layer1"
     showgrid="false"
     inkscape:window-width="1366"
     inkscape:window-height="725"
     inkscape:window-x="0"
     inkscape:window-y="20"
     inkscape:window-maximized="1" />
  <metadata
     id="metadata4196">
    <rdf:RDF>
      <cc:Work
         rdf:about="">
        <dc:format>image/svg+xml</dc:format>
        <dc:type
           rdf:resource="http://purl.org/dc/dcmitype/StillImage" />
        <dc:title></dc:title>
      </cc:Work>
    </rdf:RDF>
  </metadata>
  <g
     inkscape:label="Layer 1"
     inkscape:groupmode="layer"
     id="layer1"
     transform="translate(-84.603826,-127.43376)">
    <path
       style="color:#000000;font-style:normal;font-variant:normal;font-weight:normal;font-stretch:normal;font-size:medium;line-height:normal;font-family:sans-serif;font-variant-ligatures:normal;font-variant-position:normal;font-variant-caps:normal;font-variant-numeric:normal;font-variant-alternates:normal;font-feature-settings:normal;text-indent:0;text-align:start;text-decoration:none;text-decoration-line:none;text-decoration-style:solid;text-decoration-color:#000000;letter-spacing:normal;word-spacing:normal;text-transform:none;writing-mode:lr-tb;direction:ltr;text-orientation:mixed;dominant-baseline:auto;baseline-shift:baseline;text-anchor:start;white-space:normal;shape-padding:0;clip-rule:nonzero;display:inline;overflow:visible;visibility:visible;opacity:1;isolation:auto;mix-blend-mode:normal;color-interpolation:sRGB;color-interpolation-filters:linearRGB;solid-color:#000000;solid-opacity:1;vector-effect:none;fill:#000000;fill-opacity:1;fill-rule:nonzero;stroke:none;stroke-width:3.56154227;stroke-linecap:round;stroke-linejoin:round;stroke-miterlimit:4;stroke-dasharray:none;stroke-dashoffset:0;stroke-opacity:1;color-rendering:auto;image-rendering:auto;shape-rendering:auto;text-rendering:auto;enable-background:accumulate"
       d="m 88.638349,127.43376 c -2.201568,0 -4.034523,1.83673 -4.034523,4.03808 v 13.48459 c 0,2.20138 1.832955,4.02401 4.034523,4.02401 h 13.487931 c 2.20143,0 4.02062,-1.82263 4.02062,-4.02401 v -13.48459 c 0,-2.20135 -1.81919,-4.03808 -4.02062,-4.03808 z m 24.318521,0 c -2.20132,0 -4.02056,1.83673 -4.02056,4.03808 v 13.48459 c 0,2.20138 1.81924,4.02401 4.02056,4.02401 h 13.48814 c 2.20143,0 4.03453,-1.82263 4.03453,-4.02401 v -13.48459 c 0,-2.20135 -1.8331,-4.03808 -4.03453,-4.03808 z m -24.318521,3.56158 h 13.487931 c 0.29,0 0.45901,0.18658 0.45901,0.4765 v 13.48459 c 0,0.29 -0.16881,0.46236 -0.45901,0.46236 H 88.638349 c -0.289998,0 -0.473157,-0.17236 -0.473157,-0.46236 v -13.48459 c 0,-0.29 0.183029,-0.4765 0.473157,-0.4765 z m 24.318521,0 h 13.48814 c 0.29,0 0.47316,0.18658 0.47316,0.4765 v 13.48459 c 0,0.29 -0.18303,0.46236 -0.47316,0.46236 h -13.48814 c -0.29,0 -0.45901,-0.17236 -0.45901,-0.46236 v -13.48459 c 0,-0.29 0.16881,-0.4765 0.45901,-0.4765 z M 88.638349,152.1733 c -2.201568,0 -4.034523,1.82265 -4.034523,4.02422 v 13.48793 c 0,2.20139 1.832955,4.03453 4.034523,4.03453 h 13.487931 c 2.20143,0 4.02062,-1.83314 4.02062,-4.03453 v -13.48793 c 0,-2.20157 -1.81919,-4.02422 -4.02062,-4.02422 z m 24.318521,0 c -2.20132,0 -4.02056,1.82265 -4.02056,4.02422 v 13.48793 c 0,2.20139 1.81924,4.03453 4.02056,4.03453 h 13.48814 c 2.20143,0 4.03453,-1.83314 4.03453,-4.03453 v -13.48793 c 0,-2.20157 -1.8331,-4.02422 -4.03453,-4.02422 z m -24.318521,3.56513 h 13.487931 c 0.29,0 0.45901,0.16881 0.45901,0.45901 v 13.48794 c 0,0.28999 -0.16881,0.47315 -0.45901,0.47315 H 88.638349 c -0.289998,0 -0.473157,-0.18301 -0.473157,-0.47315 v -13.48794 c 0,-0.28998 0.183029,-0.45901 0.473157,-0.45901 z m 24.318521,0 h 13.48814 c 0.29,0 0.47316,0.16881 0.47316,0.45901 v 13.48794 c 0,0.28999 -0.18303,0.47315 -0.47316,0.47315 h -13.48814 c -0.29,0 -0.45901,-0.18301 -0.45901,-0.47315 v -13.48794 c 0,-0.28998 0.16881,-0.45901 0.45901,-0.45901 z"
       id="path4623"
       inkscape:connector-curvature="0"
       inkscape:export-xdpi="300"
       inkscape:export-ydpi="300" />
  </g>
</svg>
