<?xml version="1.0" encoding="UTF-8" standalone="no"?>
<!-- Created with Inkscape (http://www.inkscape.org/) -->

<svg
   xmlns:dc="http://purl.org/dc/elements/1.1/"
   xmlns:cc="http://creativecommons.org/ns#"
   xmlns:rdf="http://www.w3.org/1999/02/22-rdf-syntax-ns#"
   xmlns:svg="http://www.w3.org/2000/svg"
   xmlns="http://www.w3.org/2000/svg"
   xmlns:sodipodi="http://sodipodi.sourceforge.net/DTD/sodipodi-0.dtd"
   xmlns:inkscape="http://www.inkscape.org/namespaces/inkscape"
   width="67.960938mm"
   height="53.53516mm"
   viewBox="0 0 67.960937 53.53516"
   version="1.1"
   id="svg4199"
   inkscape:version="0.92.3 (2405546, 2018-03-11)"
   sodipodi:docname="camera-icon.svg">
  <defs
     id="defs4193" />
  <sodipodi:namedview
     id="base"
     pagecolor="#ffffff"
     bordercolor="#666666"
     borderopacity="1.0"
     inkscape:pageopacity="0.0"
     inkscape:pageshadow="2"
     inkscape:zoom="0.7"
     inkscape:cx="-128.02763"
     inkscape:cy="114.55119"
     inkscape:document-units="mm"
     inkscape:current-layer="layer1"
     showgrid="false"
     inkscape:window-width="1366"
     inkscape:window-height="725"
     inkscape:window-x="0"
     inkscape:window-y="20"
     inkscape:window-maximized="1" />
  <metadata
     id="metadata4196">
    <rdf:RDF>
      <cc:Work
         rdf:about="">
        <dc:format>image/svg+xml</dc:format>
        <dc:type
           rdf:resource="http://purl.org/dc/dcmitype/StillImage" />
        <dc:title></dc:title>
      </cc:Work>
    </rdf:RDF>
  </metadata>
  <g
     inkscape:label="Layer 1"
     inkscape:groupmode="layer"
     id="layer1"
     transform="translate(-70.539062,-121.7832)">
    <path
       style="color:#000000;font-style:normal;font-variant:normal;font-weight:normal;font-stretch:normal;font-size:medium;line-height:normal;font-family:sans-serif;font-variant-ligatures:normal;font-variant-position:normal;font-variant-caps:normal;font-variant-numeric:normal;font-variant-alternates:normal;font-feature-settings:normal;text-indent:0;text-align:start;text-decoration:none;text-decoration-line:none;text-decoration-style:solid;text-decoration-color:#000000;letter-spacing:normal;word-spacing:normal;text-transform:none;writing-mode:lr-tb;direction:ltr;text-orientation:mixed;dominant-baseline:auto;baseline-shift:baseline;text-anchor:start;white-space:normal;shape-padding:0;clip-rule:nonzero;display:inline;overflow:visible;visibility:visible;opacity:1;isolation:auto;mix-blend-mode:normal;color-interpolation:sRGB;color-interpolation-filters:linearRGB;solid-color:#000000;solid-opacity:1;vector-effect:none;fill:#000000;fill-opacity:1;fill-rule:nonzero;stroke:none;stroke-width:5.43033504;stroke-linecap:round;stroke-linejoin:round;stroke-miterlimit:4;stroke-dasharray:none;stroke-dashoffset:0;stroke-opacity:1;color-rendering:auto;image-rendering:auto;shape-rendering:auto;text-rendering:auto;enable-background:accumulate"
       d="m 91.591797,121.7832 c -4.641892,0 -8.464844,3.82289 -8.464844,8.46485 v 1.03906 h -2.960937 c -5.287082,0 -9.626954,4.34186 -9.626954,9.62891 v 24.77343 c 0,5.28706 4.339872,9.62891 9.626954,9.62891 h 48.705074 c 5.28706,0 9.62891,-4.34183 9.62891,-9.62891 v -24.77343 c 0,-5.28707 -4.34185,-9.62891 -9.62891,-9.62891 h -2.96093 v -1.03906 c 0,-4.64194 -3.82098,-8.46485 -8.46289,-8.46485 z m 0,5.43164 h 25.855473 c 1.72847,0 3.0332,1.30466 3.0332,3.03321 v 3.7539 a 2.715439,2.715439 0 0 0 2.71484,2.71485 h 5.67578 c 2.37255,0 4.19922,1.8267 4.19922,4.19922 v 24.77343 c 0,2.37253 -1.82667,4.19727 -4.19922,4.19727 H 80.166016 c -2.372594,0 -4.197266,-1.82472 -4.197266,-4.19727 v -24.77343 c 0,-2.37253 1.824672,-4.19922 4.197266,-4.19922 h 5.675781 a 2.715439,2.715439 0 0 0 2.716797,-2.71485 v -3.7539 c 0,-1.72853 1.304784,-3.03321 3.033203,-3.03321 z"
       id="rect1517"
       inkscape:connector-curvature="0"
       inkscape:export-xdpi="300"
       inkscape:export-ydpi="300" />
    <path
       style="color:#000000;font-style:normal;font-variant:normal;font-weight:normal;font-stretch:normal;font-size:medium;line-height:normal;font-family:sans-serif;font-variant-ligatures:normal;font-variant-position:normal;font-variant-caps:normal;font-variant-numeric:normal;font-variant-alternates:normal;font-feature-settings:normal;text-indent:0;text-align:start;text-decoration:none;text-decoration-line:none;text-decoration-style:solid;text-decoration-color:#000000;letter-spacing:normal;word-spacing:normal;text-transform:none;writing-mode:lr-tb;direction:ltr;text-orientation:mixed;dominant-baseline:auto;baseline-shift:baseline;text-anchor:start;white-space:normal;shape-padding:0;clip-rule:nonzero;display:inline;overflow:visible;visibility:visible;opacity:1;isolation:auto;mix-blend-mode:normal;color-interpolation:sRGB;color-interpolation-filters:linearRGB;solid-color:#000000;solid-opacity:1;vector-effect:none;fill:#000000;fill-opacity:1;fill-rule:nonzero;stroke:none;stroke-width:5.43015862;stroke-linecap:round;stroke-linejoin:round;stroke-miterlimit:4;stroke-dasharray:none;stroke-dashoffset:0;stroke-opacity:1;color-rendering:auto;image-rendering:auto;shape-rendering:auto;text-rendering:auto;enable-background:accumulate"
       d="m 104.42578,135.44336 c -8.22931,0.0501 -14.922065,6.81162 -14.888671,15.04102 0.03339,8.22939 6.782273,14.93661 15.011721,14.91992 8.09644,-0.0164 14.69778,-6.54424 14.91015,-14.5918 a 2.7153508,2.7153508 0 0 0 0.0371,-0.375 c 10e-6,-0.005 0.002,-0.009 0.002,-0.0137 a 2.7153508,2.7153508 0 0 0 0,-0.0274 2.7153508,2.7153508 0 0 0 0,-0.0937 c -1.7e-4,-0.02 -0.006,-0.0386 -0.006,-0.0586 a 2.7153508,2.7153508 0 0 0 -0.0371,-0.33594 2.7153508,2.7153508 0 0 0 -0.004,-0.0254 c -0.29442,-8.03058 -6.9399,-14.48867 -15.02539,-14.43945 z m 0.0332,5.42969 c 5.29859,-0.0323 9.56638,4.17414 9.60938,9.47265 a 2.7153508,2.7153508 0 0 0 0.002,0.0254 2.7153508,2.7153508 0 0 0 -0.002,0.0527 c 0,5.29868 -4.23258,9.53808 -9.53125,9.54883 -5.298673,0.0108 -9.546859,-4.21113 -9.56836,-9.50977 -0.0215,-5.29864 4.191649,-9.55759 9.49023,-9.58984 z"
       id="path1523"
       inkscape:connector-curvature="0"
       inkscape:export-xdpi="300"
       inkscape:export-ydpi="300" />
    <path
       style="opacity:1;vector-effect:none;fill:#000000;fill-opacity:1;stroke:none;stroke-width:1.69137347;stroke-linecap:round;stroke-linejoin:round;stroke-miterlimit:4;stroke-dasharray:none;stroke-dashoffset:0;stroke-opacity:1"
       d="m 86.671365,142.88126 a 3.8202834,3.8202834 0 0 1 -3.812532,3.82027 3.8202834,3.8202834 0 0 1 -3.828003,-3.80477 3.8202834,3.8202834 0 0 1 3.796998,-3.83572 3.8202834,3.8202834 0 0 1 3.843411,3.78921"
       id="path1548"
       inkscape:connector-curvature="0"
       inkscape:export-xdpi="300"
       inkscape:export-ydpi="300" />
  </g>
</svg>
