<?xml version="1.0" encoding="UTF-8" standalone="no"?>
<!-- Created with Inkscape (http://www.inkscape.org/) -->

<svg
   xmlns:dc="http://purl.org/dc/elements/1.1/"
   xmlns:cc="http://creativecommons.org/ns#"
   xmlns:rdf="http://www.w3.org/1999/02/22-rdf-syntax-ns#"
   xmlns:svg="http://www.w3.org/2000/svg"
   xmlns="http://www.w3.org/2000/svg"
   xmlns:sodipodi="http://sodipodi.sourceforge.net/DTD/sodipodi-0.dtd"
   xmlns:inkscape="http://www.inkscape.org/namespaces/inkscape"
   width="56.47311mm"
   height="53.976189mm"
   viewBox="0 0 56.47311 53.976189"
   version="1.1"
   id="svg4199"
   inkscape:version="0.92.3 (2405546, 2018-03-11)"
   sodipodi:docname="chat-icon.svg">
  <defs
     id="defs4193" />
  <sodipodi:namedview
     id="base"
     pagecolor="#ffffff"
     bordercolor="#666666"
     borderopacity="1.0"
     inkscape:pageopacity="0.0"
     inkscape:pageshadow="2"
     inkscape:zoom="0.7"
     inkscape:cx="-155.59276"
     inkscape:cy="119.4106"
     inkscape:document-units="mm"
     inkscape:current-layer="layer1"
     showgrid="false"
     inkscape:window-width="1366"
     inkscape:window-height="725"
     inkscape:window-x="0"
     inkscape:window-y="20"
     inkscape:window-maximized="1" />
  <metadata
     id="metadata4196">
    <rdf:RDF>
      <cc:Work
         rdf:about="">
        <dc:format>image/svg+xml</dc:format>
        <dc:type
           rdf:resource="http://purl.org/dc/dcmitype/StillImage" />
        <dc:title></dc:title>
      </cc:Work>
    </rdf:RDF>
  </metadata>
  <g
     inkscape:label="Layer 1"
     inkscape:groupmode="layer"
     id="layer1"
     transform="translate(-77.832336,-122.62789)">
    <path
       inkscape:connector-curvature="0"
       id="path1529"
       d="m 108.13669,122.62789 c -14.313139,0.0869 -25.907959,11.80099 -25.849817,26.11433 0.01756,3.67469 0.918944,7.26116 2.433379,10.59903 -1.083976,3.97634 -3.057342,9.31942 -6.230822,12.89357 -0.02048,0.0263 -0.02634,0.0175 -0.04887,0.0433 -0.0117,0.0176 -0.03248,0.0629 -0.04887,0.0799 a 2.5775673,2.5775673 0 0 0 -0.370796,0.63736 c -0.04887,0.10651 -0.06672,0.18961 -0.104755,0.3138 a 2.5775673,2.5775673 0 0 0 -0.0436,1.10539 c 0.01756,0.10476 -0.04331,0.1744 -0.0117,0.28325 a 2.5775673,2.5775673 0 0 0 3.755658,1.57334 c 0.0635,-0.0263 0.10534,-0.0559 0.182296,-0.0781 0.282955,-0.0805 0.722573,-0.19166 1.261415,-0.31977 1.077627,-0.25574 2.564704,-0.58194 4.263572,-0.95698 3.161108,-0.69782 7.064388,-1.59043 10.650419,-2.54562 3.276591,1.43323 6.784821,2.27247 10.368861,2.27545 a 2.5775673,2.5775673 0 0 0 0.006,0 c 14.31315,-0.0263 25.95615,-11.69649 25.95638,-26.00963 a 2.5775673,2.5775673 0 0 0 0,-0.0117 v -0.1899 a 2.5775673,2.5775673 0 0 0 0,-0.006 c -0.11617,-14.31256 -11.85287,-25.88346 -26.16562,-25.79653 a 2.5775673,2.5775673 0 0 0 -0.002,0 z m 0.0325,5.15401 c 11.53079,-0.0699 20.8857,9.15383 20.97936,20.68445 l 0.002,0.17088 c -0.001,11.52766 -9.27746,20.82449 -20.80433,20.8519 -3.16365,-0.003 -6.28519,-0.72441 -9.128399,-2.11183 a 2.5775673,2.5775673 0 0 0 -1.811201,-0.16942 c -3.617283,0.99107 -7.808287,1.92474 -11.198386,2.67309 -0.01756,0.003 -0.02048,0.006 -0.03804,0.0117 1.835868,-3.51027 3.047715,-7.11585 3.772717,-9.92368 a 2.5775673,2.5775673 0 0 0 -0.201316,-1.81881 c -1.496089,-2.91815 -2.284617,-6.14781 -2.298311,-9.4271 -0.04887,-11.53123 9.197104,-20.86937 20.728216,-20.93933 z"
       style="color:#000000;font-style:normal;font-variant:normal;font-weight:normal;font-stretch:normal;font-size:medium;line-height:normal;font-family:sans-serif;font-variant-ligatures:normal;font-variant-position:normal;font-variant-caps:normal;font-variant-numeric:normal;font-variant-alternates:normal;font-feature-settings:normal;text-indent:0;text-align:start;text-decoration:none;text-decoration-line:none;text-decoration-style:solid;text-decoration-color:#000000;letter-spacing:normal;word-spacing:normal;text-transform:none;writing-mode:lr-tb;direction:ltr;text-orientation:mixed;dominant-baseline:auto;baseline-shift:baseline;text-anchor:start;white-space:normal;shape-padding:0;clip-rule:nonzero;display:inline;overflow:visible;visibility:visible;opacity:1;isolation:auto;mix-blend-mode:normal;color-interpolation:sRGB;color-interpolation-filters:linearRGB;solid-color:#000000;solid-opacity:1;vector-effect:none;fill:#000000;fill-opacity:1;fill-rule:nonzero;stroke:none;stroke-width:5.15461922;stroke-linecap:round;stroke-linejoin:round;stroke-miterlimit:4;stroke-dasharray:none;stroke-dashoffset:0;stroke-opacity:1;paint-order:markers stroke fill;color-rendering:auto;image-rendering:auto;shape-rendering:auto;text-rendering:auto;enable-background:accumulate"
       inkscape:export-xdpi="300"
       inkscape:export-ydpi="300" />
  </g>
</svg>
