<?xml version="1.0" encoding="UTF-8" standalone="no"?>
<!-- Created with Inkscape (http://www.inkscape.org/) -->

<svg
   xmlns:dc="http://purl.org/dc/elements/1.1/"
   xmlns:cc="http://creativecommons.org/ns#"
   xmlns:rdf="http://www.w3.org/1999/02/22-rdf-syntax-ns#"
   xmlns:svg="http://www.w3.org/2000/svg"
   xmlns="http://www.w3.org/2000/svg"
   xmlns:xlink="http://www.w3.org/1999/xlink"
   xmlns:sodipodi="http://sodipodi.sourceforge.net/DTD/sodipodi-0.dtd"
   xmlns:inkscape="http://www.inkscape.org/namespaces/inkscape"
   width="89.958336mm"
   height="141.36313mm"
   viewBox="0 0 89.958335 141.36313"
   version="1.1"
   id="svg4199"
   inkscape:version="0.92.3 (2405546, 2018-03-11)"
   sodipodi:docname="splas-bg.svg">
  <defs
     id="defs4193">
    <linearGradient
       inkscape:collect="always"
       xlink:href="#linearGradient831"
       id="linearGradient1697"
       gradientUnits="userSpaceOnUse"
       gradientTransform="matrix(0.26458333,0,0,0.21381189,-385.64773,71.084699)"
       x1="-521.07684"
       y1="241.45709"
       x2="-255.4061"
       y2="243.66302" />
    <linearGradient
       inkscape:collect="always"
       id="linearGradient831">
      <stop
         style="stop-color:#00d4aa;stop-opacity:1"
         offset="0"
         id="stop827" />
      <stop
         style="stop-color:#00aa88;stop-opacity:1"
         offset="1"
         id="stop829" />
    </linearGradient>
    <linearGradient
       inkscape:collect="always"
       xlink:href="#linearGradient839"
       id="linearGradient1699"
       gradientUnits="userSpaceOnUse"
       gradientTransform="matrix(0.26458333,0,0,0.21381189,-385.64773,71.084699)"
       x1="-440.71429"
       y1="211.8054"
       x2="-239.28572"
       y2="223.94826" />
    <linearGradient
       inkscape:collect="always"
       id="linearGradient839">
      <stop
         style="stop-color:#55ffdd;stop-opacity:1"
         offset="0"
         id="stop835" />
      <stop
         style="stop-color:#37c8ab;stop-opacity:1"
         offset="1"
         id="stop837" />
    </linearGradient>
    <linearGradient
       inkscape:collect="always"
       xlink:href="#linearGradient943"
       id="linearGradient1701"
       gradientUnits="userSpaceOnUse"
       gradientTransform="matrix(0.26458333,0,0,0.18134582,-385.64773,121.76126)"
       x1="-524.28571"
       y1="582.08038"
       x2="-414.28571"
       y2="714.9375" />
    <linearGradient
       inkscape:collect="always"
       id="linearGradient943">
      <stop
         style="stop-color:#ff00cc;stop-opacity:1"
         offset="0"
         id="stop939" />
      <stop
         style="stop-color:#550044;stop-opacity:1"
         offset="1"
         id="stop941" />
    </linearGradient>
  </defs>
  <sodipodi:namedview
     id="base"
     pagecolor="#ffffff"
     bordercolor="#666666"
     borderopacity="1.0"
     inkscape:pageopacity="0.0"
     inkscape:pageshadow="2"
     inkscape:zoom="0.7"
     inkscape:cx="-32.59367"
     inkscape:cy="272.85461"
     inkscape:document-units="mm"
     inkscape:current-layer="layer1"
     showgrid="false"
     inkscape:window-width="1366"
     inkscape:window-height="725"
     inkscape:window-x="0"
     inkscape:window-y="20"
     inkscape:window-maximized="1" />
  <metadata
     id="metadata4196">
    <rdf:RDF>
      <cc:Work
         rdf:about="">
        <dc:format>image/svg+xml</dc:format>
        <dc:type
           rdf:resource="http://purl.org/dc/dcmitype/StillImage" />
        <dc:title></dc:title>
      </cc:Work>
    </rdf:RDF>
  </metadata>
  <g
     inkscape:label="Layer 1"
     inkscape:groupmode="layer"
     id="layer1"
     transform="translate(-45.288828,-75.839679)">
    <g
       id="g1713"
       transform="translate(579.10322,-36.102528)"
       inkscape:export-xdpi="300"
       inkscape:export-ydpi="300">
      <rect
         style="opacity:1;vector-effect:none;fill:#0b0b28;fill-opacity:1;stroke:none;stroke-width:1.32291663;stroke-linecap:round;stroke-linejoin:round;stroke-miterlimit:4;stroke-dasharray:none;stroke-dashoffset:0;stroke-opacity:1"
         id="rect1676"
         width="89.958336"
         height="141.3631"
         x="-533.81439"
         y="111.94221" />
      <path
         style="opacity:0.156;vector-effect:none;fill:#3737c8;fill-opacity:1;stroke:none;stroke-width:6.6630168;stroke-linecap:round;stroke-linejoin:round;stroke-miterlimit:4;stroke-dasharray:none;stroke-dashoffset:0;stroke-opacity:1"
         id="path1678"
         sodipodi:type="arc"
         sodipodi:cx="-516.23853"
         sodipodi:cy="155.97643"
         sodipodi:rx="15.229754"
         sodipodi:ry="15.229754"
         sodipodi:start="0"
         sodipodi:end="6.2750695"
         sodipodi:open="true"
         d="m -501.00877,155.97643 a 15.229754,15.229754 0 0 1 -15.19885,15.22972 15.229754,15.229754 0 0 1 -15.26053,-15.16792 15.229754,15.229754 0 0 1 15.13692,-15.29128 15.229754,15.229754 0 0 1 15.32196,15.10587" />
      <path
         style="fill:url(#linearGradient1697);fill-opacity:1;stroke:none;stroke-width:0.2378467px;stroke-linecap:butt;stroke-linejoin:miter;stroke-opacity:1"
         d="m -533.81439,111.9424 v 11.7964 c 4.13766,3.4313 9.06682,6.6595 13.99759,7.8722 12.2944,3.02376 16.57044,-10.58275 38.48654,-5.39917 17.31665,4.09573 24.62342,13.04336 37.4742,14.38219 V 111.9424 Z"
         id="path1680"
         inkscape:connector-curvature="0" />
      <path
         d="m -509.59946,155.97643 a 6.63907,6.63907 0 0 1 -6.6256,6.63905 6.63907,6.63907 0 0 1 -6.65248,-6.61211 6.63907,6.63907 0 0 1 6.5986,-6.66589 6.63907,6.63907 0 0 1 6.67927,6.58506"
         sodipodi:open="true"
         sodipodi:end="6.2750695"
         sodipodi:start="0"
         sodipodi:ry="6.63907"
         sodipodi:rx="6.63907"
         sodipodi:cy="155.97643"
         sodipodi:cx="-516.23853"
         sodipodi:type="arc"
         id="path1682"
         style="opacity:1;vector-effect:none;fill:#3737c8;fill-opacity:1;stroke:none;stroke-width:2.90459299;stroke-linecap:round;stroke-linejoin:round;stroke-miterlimit:4;stroke-dasharray:none;stroke-dashoffset:0;stroke-opacity:1" />
      <path
         style="fill:url(#linearGradient1699);fill-opacity:1;stroke:none;stroke-width:0.2378467px;stroke-linecap:butt;stroke-linejoin:miter;stroke-opacity:1"
         d="m -533.81439,111.9424 v 11.96427 c 5.75342,1.45102 11.85639,2.25267 17.38705,1.47539 17.3869,-2.44357 30.61599,-4.88737 44.22314,-2.4438 10.33982,1.85682 16.97074,7.23964 28.34814,7.17188 V 111.9424 Z"
         id="path1684"
         inkscape:connector-curvature="0" />
      <path
         style="fill:url(#linearGradient1701);fill-opacity:1;stroke:none;stroke-width:0.21904583px;stroke-linecap:butt;stroke-linejoin:miter;stroke-opacity:1"
         d="m -455.68118,226.13109 c -3.56285,0.018 -7.03833,0.45018 -10.09757,1.52692 -13.98512,4.92224 -12.09524,14.50762 -15.875,21.24332 -3.77977,6.7357 -9.07136,1.8134 -20.41065,1.29528 -11.33927,-0.51813 -20.41049,-16.06227 -29.48192,-14.76694 -0.76288,0.10893 -1.52038,0.30967 -2.26807,0.58229 v 17.29338 h 89.95833 v -26.00081 c -3.74559,-0.69383 -7.83896,-1.19356 -11.82512,-1.17344 z"
         id="path1687"
         inkscape:connector-curvature="0" />
      <path
         d="m -463.30289,147.47197 a 5.8776255,5.8776255 0 0 1 -5.8657,5.87761 5.8776255,5.8776255 0 0 1 -5.8895,-5.85376 5.8776255,5.8776255 0 0 1 5.8418,-5.90137 5.8776255,5.8776255 0 0 1 5.91321,5.82982"
         sodipodi:open="true"
         sodipodi:end="6.2750695"
         sodipodi:start="0"
         sodipodi:ry="5.8776255"
         sodipodi:rx="5.8776255"
         sodipodi:cy="147.47197"
         sodipodi:cx="-469.18051"
         sodipodi:type="arc"
         id="path1689"
         style="opacity:0.156;vector-effect:none;fill:#ffd42a;fill-opacity:1;stroke:none;stroke-width:2.57146072;stroke-linecap:round;stroke-linejoin:round;stroke-miterlimit:4;stroke-dasharray:none;stroke-dashoffset:0;stroke-opacity:1" />
      <path
         style="opacity:1;vector-effect:none;fill:#ffd42a;fill-opacity:1;stroke:none;stroke-width:1.32291663;stroke-linecap:round;stroke-linejoin:round;stroke-miterlimit:4;stroke-dasharray:none;stroke-dashoffset:0;stroke-opacity:1"
         id="path1691"
         sodipodi:type="arc"
         sodipodi:cx="-469.18051"
         sodipodi:cy="147.47197"
         sodipodi:rx="3.0238097"
         sodipodi:ry="3.0238097"
         sodipodi:start="0"
         sodipodi:end="6.2750695"
         sodipodi:open="true"
         d="m -466.1567,147.47197 a 3.0238097,3.0238097 0 0 1 -3.01768,3.0238 3.0238097,3.0238097 0 0 1 -3.02992,-3.01153 3.0238097,3.0238097 0 0 1 3.00538,-3.03602 3.0238097,3.0238097 0 0 1 3.04212,2.99921" />
      <path
         style="opacity:0.156;vector-effect:none;fill:#ff00cc;fill-opacity:1;stroke:none;stroke-width:3.89437723;stroke-linecap:round;stroke-linejoin:round;stroke-miterlimit:4;stroke-dasharray:none;stroke-dashoffset:0;stroke-opacity:1"
         id="path1693"
         sodipodi:type="arc"
         sodipodi:cx="-503.19836"
         sodipodi:cy="217.01961"
         sodipodi:rx="8.9014349"
         sodipodi:ry="8.9014349"
         sodipodi:start="0"
         sodipodi:end="6.2750695"
         sodipodi:open="true"
         d="m -494.29693,217.01961 a 8.9014349,8.9014349 0 0 1 -8.88337,8.90141 8.9014349,8.9014349 0 0 1 -8.91943,-8.86529 8.9014349,8.9014349 0 0 1 8.84718,-8.93739 8.9014349,8.9014349 0 0 1 8.95533,8.82903" />
      <path
         d="m -498.61892,217.01961 a 4.579442,4.579442 0 0 1 -4.57015,4.57943 4.579442,4.579442 0 0 1 -4.5887,-4.56085 4.579442,4.579442 0 0 1 4.55153,-4.59794 4.579442,4.579442 0 0 1 4.60717,4.54219"
         sodipodi:open="true"
         sodipodi:end="6.2750695"
         sodipodi:start="0"
         sodipodi:ry="4.579442"
         sodipodi:rx="4.579442"
         sodipodi:cy="217.01961"
         sodipodi:cx="-503.19836"
         sodipodi:type="arc"
         id="path1695"
         style="opacity:1;vector-effect:none;fill:#ff00cc;fill-opacity:1;stroke:none;stroke-width:2.00350571;stroke-linecap:round;stroke-linejoin:round;stroke-miterlimit:4;stroke-dasharray:none;stroke-dashoffset:0;stroke-opacity:1" />
    </g>
  </g>
</svg>
